<svg width="832" height="608" viewBox="0 0 832 608" fill="none" xmlns="http://www.w3.org/2000/svg">
<rect width="832" height="608" fill="url(#paint0_linear_4278_65544)"/>
<path d="M270.629 305.684H261.949V314H257.945V293.924H261.949V302.352H270.629V293.924H274.633V314H270.629V305.684ZM284.806 314.28C283.76 314.28 282.79 314.121 281.894 313.804C281.016 313.468 280.242 312.983 279.57 312.348C278.916 311.695 278.403 310.901 278.03 309.968C277.656 309.016 277.47 307.933 277.47 306.72C277.47 305.507 277.656 304.433 278.03 303.5C278.403 302.548 278.916 301.755 279.57 301.12C280.242 300.485 281.016 300.009 281.894 299.692C282.79 299.356 283.76 299.188 284.806 299.188C285.851 299.188 286.822 299.356 287.718 299.692C288.632 300.009 289.416 300.485 290.07 301.12C290.742 301.755 291.264 302.548 291.638 303.5C292.03 304.433 292.226 305.507 292.226 306.72C292.226 307.933 292.03 309.016 291.638 309.968C291.264 310.901 290.742 311.695 290.07 312.348C289.416 312.983 288.632 313.468 287.718 313.804C286.822 314.121 285.851 314.28 284.806 314.28ZM284.806 311.172C285.814 311.172 286.635 310.808 287.27 310.08C287.904 309.352 288.222 308.232 288.222 306.72C288.222 305.227 287.904 304.116 287.27 303.388C286.635 302.66 285.814 302.296 284.806 302.296C283.854 302.296 283.051 302.66 282.398 303.388C281.763 304.116 281.446 305.227 281.446 306.72C281.446 308.232 281.763 309.352 282.398 310.08C283.051 310.808 283.854 311.172 284.806 311.172ZM294.77 299.468H301.098C303.058 299.468 304.495 299.767 305.41 300.364C306.325 300.943 306.782 301.82 306.782 302.996C306.782 303.929 306.502 304.657 305.942 305.18C305.382 305.703 304.57 306.095 303.506 306.356C304.813 306.543 305.774 306.907 306.39 307.448C307.025 307.989 307.342 308.792 307.342 309.856C307.342 311.256 306.782 312.301 305.662 312.992C304.542 313.664 303.002 314 301.042 314H294.77V299.468ZM298.578 302.268V305.292H300.65C301.341 305.292 301.891 305.18 302.302 304.956C302.713 304.713 302.918 304.321 302.918 303.78C302.918 303.201 302.741 302.809 302.386 302.604C302.031 302.38 301.509 302.268 300.818 302.268H298.578ZM298.578 307.868V311.172H300.762C301.546 311.172 302.181 311.069 302.666 310.864C303.151 310.64 303.394 310.211 303.394 309.576C303.394 308.979 303.17 308.549 302.722 308.288C302.293 308.008 301.593 307.868 300.622 307.868H298.578ZM322.289 308.848C322.289 309.688 322.13 310.435 321.813 311.088C321.514 311.723 321.094 312.264 320.553 312.712C320.012 313.141 319.358 313.468 318.593 313.692C317.846 313.897 317.025 314 316.129 314H310.137V299.468H314.001V303.892H316.185C318.108 303.892 319.601 304.312 320.665 305.152C321.748 305.973 322.289 307.205 322.289 308.848ZM327.441 314H323.549V299.468H327.441V314ZM314.001 306.832V311.088H315.681C316.465 311.088 317.09 310.929 317.557 310.612C318.042 310.276 318.285 309.725 318.285 308.96C318.285 308.213 318.061 307.672 317.613 307.336C317.184 307 316.549 306.832 315.709 306.832H314.001ZM337.473 297.9C336.652 297.9 335.942 297.797 335.345 297.592C334.748 297.368 334.253 297.069 333.861 296.696C333.469 296.304 333.18 295.856 332.993 295.352C332.806 294.829 332.713 294.269 332.713 293.672H335.905C335.905 294.288 336.045 294.727 336.325 294.988C336.605 295.249 336.988 295.38 337.473 295.38C337.958 295.38 338.332 295.249 338.593 294.988C338.873 294.727 339.013 294.288 339.013 293.672H342.233C342.233 294.269 342.13 294.829 341.925 295.352C341.738 295.856 341.44 296.304 341.029 296.696C340.637 297.069 340.142 297.368 339.545 297.592C338.948 297.797 338.257 297.9 337.473 297.9ZM334.645 308.68L340.525 299.468H344.277V314H340.441V304.816L334.617 314H330.809V299.468H334.645V308.68ZM358.902 308.344H357.642V314H353.778V299.468H357.642V305.264H358.958L363.214 299.468H367.106L362.01 306.356L367.47 314H362.934L358.902 308.344ZM370.626 308.316C370.831 307.42 370.952 306.244 370.99 304.788C371.046 303.332 371.074 301.559 371.074 299.468H382.05V314H378.186V302.52H374.518C374.499 304.256 374.424 305.843 374.294 307.28C374.163 308.699 373.92 309.912 373.566 310.92C373.211 311.928 372.707 312.712 372.054 313.272C371.4 313.832 370.542 314.112 369.478 314.112C369.272 314.112 369.067 314.103 368.862 314.084C368.656 314.065 368.442 314.037 368.218 314V310.528C368.311 310.547 368.395 310.565 368.47 310.584C368.544 310.584 368.628 310.584 368.722 310.584C369.226 310.584 369.627 310.407 369.926 310.052C370.243 309.679 370.476 309.1 370.626 308.316ZM389.278 308.68L395.158 299.468H398.91V314H395.074V304.816L389.25 314H385.442V299.468H389.278V308.68ZM414.886 313.048C414.662 313.179 414.401 313.319 414.102 313.468C413.822 313.599 413.477 313.729 413.066 313.86C412.674 313.972 412.207 314.065 411.666 314.14C411.143 314.233 410.518 314.28 409.79 314.28C406.953 314.28 404.853 313.617 403.49 312.292C402.127 310.967 401.446 309.109 401.446 306.72C401.446 305.544 401.623 304.489 401.978 303.556C402.351 302.623 402.865 301.839 403.518 301.204C404.171 300.551 404.946 300.056 405.842 299.72C406.757 299.365 407.765 299.188 408.866 299.188C409.986 299.188 410.994 299.375 411.89 299.748C412.786 300.103 413.523 300.635 414.102 301.344C414.699 302.053 415.11 302.949 415.334 304.032C415.558 305.115 415.558 306.365 415.334 307.784H405.478C405.627 308.923 406.038 309.781 406.71 310.36C407.401 310.92 408.493 311.2 409.986 311.2C411.181 311.2 412.151 311.069 412.898 310.808C413.663 310.547 414.326 310.276 414.886 309.996V313.048ZM408.922 302.072C408.063 302.072 407.345 302.333 406.766 302.856C406.187 303.379 405.795 304.135 405.59 305.124H411.638C411.657 304.097 411.433 303.332 410.966 302.828C410.499 302.324 409.818 302.072 408.922 302.072ZM427.468 308.12H422.064V314H418.2V299.468H422.064V305.068H427.468V299.468H431.332V314H427.468V308.12ZM441.688 302.52V314H437.796V302.52H433.54V299.468H446V302.52H441.688ZM454.922 314.28C453.709 314.28 452.617 314.112 451.646 313.776C450.694 313.421 449.882 312.927 449.21 312.292C448.538 311.639 448.016 310.845 447.642 309.912C447.288 308.979 447.11 307.915 447.11 306.72C447.11 305.544 447.288 304.489 447.642 303.556C448.016 302.623 448.538 301.839 449.21 301.204C449.882 300.551 450.704 300.056 451.674 299.72C452.645 299.365 453.737 299.188 454.95 299.188C456.07 299.188 457.004 299.309 457.75 299.552C458.497 299.776 459.085 300.047 459.514 300.364V303.444C458.954 303.089 458.357 302.809 457.722 302.604C457.088 302.38 456.276 302.268 455.286 302.268C452.486 302.268 451.086 303.752 451.086 306.72C451.086 309.688 452.468 311.172 455.23 311.172C456.257 311.172 457.088 311.069 457.722 310.864C458.357 310.64 458.954 310.36 459.514 310.024V313.076C459.085 313.393 458.488 313.673 457.722 313.916C456.976 314.159 456.042 314.28 454.922 314.28ZM467.374 308.344H466.114V314H462.25V299.468H466.114V305.264H467.43L471.686 299.468H475.578L470.482 306.356L475.942 314H471.406L467.374 308.344ZM481.59 308.68L487.47 299.468H491.222V314H487.386V304.816L481.562 314H477.754V299.468H481.59V308.68ZM501.235 297.9C500.413 297.9 499.704 297.797 499.107 297.592C498.509 297.368 498.015 297.069 497.623 296.696C497.231 296.304 496.941 295.856 496.755 295.352C496.568 294.829 496.475 294.269 496.475 293.672H499.667C499.667 294.288 499.807 294.727 500.087 294.988C500.367 295.249 500.749 295.38 501.235 295.38C501.72 295.38 502.093 295.249 502.355 294.988C502.635 294.727 502.775 294.288 502.775 293.672H505.995C505.995 294.269 505.892 294.829 505.687 295.352C505.5 295.856 505.201 296.304 504.791 296.696C504.399 297.069 503.904 297.368 503.307 297.592C502.709 297.797 502.019 297.9 501.235 297.9ZM498.407 308.68L504.287 299.468H508.039V314H504.203V304.816L498.379 314H494.571V299.468H498.407V308.68ZM517.539 299.468H530.419V314H526.555V302.52H521.403V314H517.539V299.468ZM542.154 313.832C541.836 314.709 541.5 315.484 541.146 316.156C540.791 316.828 540.371 317.388 539.886 317.836C539.419 318.303 538.859 318.648 538.206 318.872C537.552 319.115 536.768 319.236 535.854 319.236C535.294 319.236 534.799 319.189 534.37 319.096C533.94 319.021 533.52 318.891 533.11 318.704V315.344C533.427 315.568 533.81 315.745 534.258 315.876C534.724 316.025 535.228 316.1 535.77 316.1C536.367 316.1 536.852 315.988 537.226 315.764C537.599 315.559 537.916 315.241 538.178 314.812L532.382 299.468H536.498L540.138 309.968L543.694 299.468H547.25L542.154 313.832ZM556.45 302.52V314H552.558V302.52H548.302V299.468H560.762V302.52H556.45ZM575.361 308.848C575.361 309.688 575.202 310.435 574.885 311.088C574.586 311.723 574.166 312.264 573.625 312.712C573.083 313.141 572.43 313.468 571.665 313.692C570.918 313.897 570.097 314 569.201 314H562.957V299.468H566.849V303.892H569.257C571.179 303.892 572.673 304.312 573.737 305.152C574.819 305.973 575.361 307.205 575.361 308.848ZM566.849 306.832V311.088H568.753C569.537 311.088 570.162 310.929 570.629 310.612C571.114 310.276 571.357 309.725 571.357 308.96C571.357 308.213 571.133 307.672 570.685 307.336C570.255 307 569.621 306.832 568.781 306.832H566.849Z" fill="white"/>
<defs>
<linearGradient id="paint0_linear_4278_65544" x1="1528.76" y1="969.5" x2="-67.4964" y2="993.979" gradientUnits="userSpaceOnUse">
<stop stop-color="#F2F0EC"/>
<stop offset="0.221881" stop-color="#FFC4A1"/>
<stop offset="0.430796" stop-color="#FFAAB8"/>
<stop offset="0.679592" stop-color="#DC9CF7"/>
<stop offset="0.951407" stop-color="#A6B9FF"/>
</linearGradient>
</defs>
</svg>
